<svg xmlns="http://www.w3.org/2000/svg" viewBox="0 0 694.65 1000"><defs><style>.cls-1{fill:#e08d98;}</style></defs><g id="Calque_2" data-name="Calque 2"><g id="Calque_1-2" data-name="Calque 1"><polygon class="cls-1" points="493.43 412.4 541.03 460 220.3 460 220.3 540 542 540 494.4 587.6 550.97 644.17 694.65 500.49 550 355.83 493.43 412.4"/><path class="cls-1" d="M694.65,872.27q-15.25,8-31.19,14.76A420.13,420.13,0,0,1,336.54,113a421.69,421.69,0,0,1,326.92,0q15.94,6.75,31.19,14.76V39.3A498.62,498.62,0,0,0,500,0C223.86,0,0,223.86,0,500s223.86,500,500,500a498.44,498.44,0,0,0,194.65-39.3Z"/></g></g></svg>